<svg width="5.000000" height="9.000000" viewBox="0 0 5 9" fill="none" xmlns="http://www.w3.org/2000/svg" xmlns:xlink="http://www.w3.org/1999/xlink">
	<desc>
			Created with Pixso.
	</desc>
	<defs/>
	<path id="Vector" d="M4.38 -0.05C4.38 0.13 4.31 0.3 4.18 0.42L1.13 3.48C1.01 3.61 0.94 3.78 0.94 3.95C0.94 4.13 1.01 4.3 1.13 4.42L4.18 7.48C4.31 7.61 4.37 7.77 4.37 7.95C4.37 8.12 4.3 8.29 4.18 8.41C4.05 8.54 3.89 8.61 3.71 8.61C3.54 8.61 3.37 8.54 3.24 8.42L0.18 5.37C-0.18 4.98 -0.38 4.48 -0.38 3.95C-0.38 3.42 -0.18 2.92 0.18 2.54L3.24 -0.52C3.34 -0.61 3.45 -0.68 3.58 -0.7C3.71 -0.73 3.85 -0.71 3.97 -0.66C4.09 -0.61 4.19 -0.53 4.27 -0.42C4.34 -0.31 4.38 -0.18 4.38 -0.05Z" fill="#FFFFFF" fill-opacity="1.000000" fill-rule="evenodd"/>
</svg>
