<svg width="192" height="32" viewBox="0 0 192 32" fill="none" xmlns="http://www.w3.org/2000/svg">
<circle cx="12.5" cy="16" r="12.5" fill="#FEF339"/>
<path fill-rule="evenodd" clip-rule="evenodd" d="M22.9996 9.2142V9.50008C18.0816 9.50008 14.5018 10.5136 12.2049 11.8764C9.89224 13.2485 9.0492 14.8424 9.00234 16.076C8.95713 17.266 9.63095 18.7921 11.8532 20.1306C14.0881 21.4769 17.7334 22.5001 23.0001 22.5001V22.7852C22.0869 24.1955 20.8972 25.4102 19.5079 26.3525C15.4465 25.9951 12.1924 25.0046 9.78924 23.557C6.71972 21.7081 4.88898 18.9841 5.00522 15.9242C5.11981 12.9078 7.10424 10.2516 10.1639 8.43629C12.5522 7.01928 15.7015 6.03239 19.5291 5.66211C20.9091 6.60221 22.0911 7.81141 22.9996 9.2142Z" fill="#222222"/>
<path d="M42.432 24V9.576H41.136C38.76 9.576 37.512 10.776 37.512 12.552C37.512 14.568 38.376 15.504 40.152 16.704L41.616 17.688L37.392 24H34.248L38.04 18.36C35.856 16.8 34.632 15.288 34.632 12.72C34.632 9.504 36.864 7.32 41.112 7.32H45.336V24H42.432ZM80.568 23.184C79.728 23.76 78.384 24.24 76.56 24.24C72.912 24.24 70.848 22.2 70.848 18C70.848 14.352 72.504 11.688 75.984 11.688C78.84 11.688 80.688 13.272 80.688 17.472V18.984H73.8C73.92 21 74.712 21.984 76.8 21.984C78.192 21.984 79.68 21.456 80.568 20.856V23.184ZM98.424 24.24C94.608 24.24 92.76 22.008 92.76 17.976C92.76 14.304 94.656 11.688 98.304 11.688C99.72 11.688 100.776 11.928 101.376 12.264V14.688C100.8 14.328 99.72 13.944 98.616 13.944C96.744 13.944 95.712 15.288 95.712 17.904C95.712 20.4 96.552 21.984 98.592 21.984C99.792 21.984 100.656 21.672 101.376 21.168V23.496C100.68 24 99.744 24.24 98.424 24.24ZM54.408 11.928H57.264V24H54.408V18.96H50.592V24H47.736V11.928H50.592V16.704H54.408V11.928ZM70.152 21.744V26.76H67.512V24H61.104V26.76H58.464V21.744H59.352C60.36 19.728 60.552 15.912 60.552 12.96V11.928H68.88V21.744H70.152ZM89.688 24L85.464 18.072V24H82.608V11.928H85.464V17.496L89.496 11.928H92.376L88.344 17.496L92.928 24H89.688ZM75.936 13.944C74.568 13.944 73.872 14.952 73.8 16.872H77.784V16.632C77.784 15.12 77.352 13.944 75.936 13.944ZM66.024 21.744V14.184H63V14.544C63 16.632 62.784 19.92 61.992 21.744H66.024ZM114.242 24.24C110.114 24.24 107.618 21.144 107.618 15.672C107.618 10.344 110.018 7.08 114.458 7.08C115.994 7.08 117.242 7.584 118.01 8.136V10.464C117.146 9.912 115.922 9.336 114.602 9.336C111.77 9.336 110.57 11.376 110.57 15.672C110.57 19.848 111.818 21.984 114.458 21.984C115.994 21.984 117.05 21.456 118.01 20.76V23.088C117.266 23.592 116.042 24.24 114.242 24.24ZM124.361 11.688C127.505 11.688 129.689 13.92 129.689 17.952C129.689 22.008 127.505 24.24 124.361 24.24C121.217 24.24 119.033 22.008 119.033 17.976C119.033 13.92 121.217 11.688 124.361 11.688ZM124.361 21.984C125.945 21.984 126.737 20.76 126.737 17.952C126.737 15.168 125.945 13.944 124.361 13.944C122.777 13.944 121.985 15.168 121.985 17.976C121.985 20.76 122.777 21.984 124.361 21.984ZM131.243 16.896C131.243 11.088 132.875 7.896 138.299 7.464C139.955 7.344 140.627 7.176 141.131 6.912V9.216C140.651 9.504 139.955 9.72 138.515 9.816C135.203 10.056 133.955 11.088 133.571 14.256C134.219 12.84 135.515 12.072 137.243 12.072C139.787 12.072 141.851 14.136 141.851 18.192C141.851 22.032 139.619 24.24 136.499 24.24C133.379 24.24 131.243 22.152 131.243 17.4V16.896ZM134.195 18.192C134.195 20.76 135.011 21.984 136.499 21.984C138.083 21.984 138.947 20.88 138.947 18.192C138.947 15.456 138.131 14.352 136.595 14.352C135.011 14.352 134.195 15.552 134.195 18.192ZM143.77 11.928H146.626V15.624H148.162C151.138 15.624 152.914 17.04 152.914 19.728C152.914 22.56 150.922 24 148.114 24H143.77V11.928ZM153.97 11.928H156.826V24H153.97V11.928ZM147.946 21.744C149.17 21.744 149.962 21.216 149.962 19.824C149.962 18.432 149.242 17.88 148.018 17.88H146.626V21.744H147.946ZM168.072 14.184H164.712V24H161.856V14.184H158.496V11.928H168.072V14.184ZM169.763 11.928H172.547V19.392L176.963 11.928H179.435V24H176.651V16.536L172.235 24H169.763V11.928ZM180.993 24L183.705 19.44C182.169 18.912 181.305 17.76 181.305 15.936C181.305 13.344 183.297 11.928 186.081 11.928H190.449V24H187.593V20.064H186.225L183.921 24H180.993ZM186.297 14.184C185.049 14.184 184.209 14.712 184.209 16.032C184.209 17.424 184.929 17.976 186.225 17.976H187.593V14.184H186.297Z" fill="#222222"/>
</svg>
