<svg width="39" height="55.4" viewBox="0 0 39 55.4" xmlns="http://www.w3.org/2000/svg"><g id="svgGroup" stroke-linecap="round" fill-rule="evenodd" font-size="9pt" stroke="#000000" stroke-width="0.25mm" fill="rgba(254, 243, 57, 1)" style="stroke:#000000;stroke-width:0.25mm;fill:rgba(254, 243, 57, 1)"><path d="M 26.2 55.4 L 2.7 55.4 L 2.6 55.2 A 78.612 78.612 0 0 0 8.441 50.846 A 62.316 62.316 0 0 0 12.35 47.35 A 52.663 52.663 0 0 0 15.522 43.986 Q 16.983 42.285 18.097 40.64 A 28.953 28.953 0 0 0 18.8 39.55 Q 20.284 37.131 20.81 35.108 A 8.379 8.379 0 0 0 21.1 33 A 8.117 8.117 0 0 0 20.69 30.36 A 6.684 6.684 0 0 0 18.4 27.2 L 3.1 27.2 L 13.3 12 L 0 12 L 0 0 L 38.8 0 L 23.7 22.3 L 34.4 22.3 Q 37 24.8 38 28.2 Q 39 31.6 39 34.7 A 15.578 15.578 0 0 1 38.492 38.553 Q 38.07 40.205 37.3 41.95 A 32.689 32.689 0 0 1 33.613 48.233 A 37.292 37.292 0 0 1 32.75 49.35 Q 29.9 52.9 26.2 55.4 Z" id="0"/></g></svg>