<svg width="20.000000" height="17.000000" viewBox="0 0 20 17" fill="none" xmlns="http://www.w3.org/2000/svg" xmlns:xlink="http://www.w3.org/1999/xlink">
	<desc>
			Created with Pixso.
	</desc>
	<defs/>
	<path id="Vector" d="M9.82 0.58L9 1.4L8.17 0.57C7.16 -0.43 5.8 -1 4.37 -1C2.94 -1 1.58 -0.43 0.57 0.57C-0.44 1.58 -1 2.95 -1 4.37C-1 5.8 -0.44 7.17 0.57 8.17L8.46 16.07C8.61 16.21 8.8 16.29 9 16.29C9.19 16.29 9.38 16.21 9.53 16.07L17.43 8.17C18.43 7.16 19 5.8 19 4.37C19 2.95 18.43 1.58 17.43 0.57C16.93 0.07 16.33 -0.32 15.68 -0.59C15.03 -0.86 14.33 -1 13.62 -1C12.91 -1 12.21 -0.86 11.56 -0.59C10.91 -0.32 10.31 0.08 9.82 0.58ZM16.36 7.12L9 14.48L1.63 7.12C1.27 6.76 0.98 6.33 0.78 5.86C0.58 5.39 0.48 4.88 0.48 4.37C0.48 3.86 0.58 3.35 0.77 2.88C0.97 2.41 1.25 1.98 1.62 1.62C1.98 1.26 2.41 0.97 2.88 0.78C3.35 0.58 3.86 0.48 4.37 0.49C4.88 0.49 5.38 0.59 5.85 0.79C6.32 0.98 6.75 1.27 7.11 1.63L8.47 2.99C8.54 3.06 8.62 3.12 8.72 3.16C8.81 3.19 8.91 3.21 9.01 3.21C9.11 3.21 9.21 3.19 9.3 3.15C9.39 3.11 9.47 3.05 9.54 2.98L10.88 1.63C11.61 0.95 12.58 0.58 13.59 0.6C14.59 0.61 15.55 1.02 16.26 1.73C16.97 2.44 17.38 3.4 17.4 4.4C17.42 5.41 17.05 6.38 16.36 7.12Z" fill="#222222" fill-opacity="1.000000" fill-rule="nonzero"/>
</svg>
