<svg width="25.000000" height="25.000000" viewBox="0 0 25 25" fill="none" xmlns="http://www.w3.org/2000/svg" xmlns:xlink="http://www.w3.org/1999/xlink">
	<desc>
			Created with Pixso.
	</desc>
	<defs/>
	<circle id="Ellipse" cx="12.500000" cy="12.000000" r="12.500000" fill="#FEF339" fill-opacity="1.000000"/>
	<path id="Intersect" d="M23.0001 18.7849C22.0866 20.1956 20.8967 21.4104 19.5069 22.3528C18.0519 22.2249 16.6815 22.0137 15.3957 21.7188C13.2242 21.2209 11.3554 20.5002 9.78918 19.5569C8.22455 18.6143 7.02899 17.4934 6.20251 16.1946C5.78241 15.5342 5.47125 14.8452 5.26904 14.1279C5.14563 13.6899 5.0647 13.2485 5.02618 12.8032C5.00098 12.5117 4.99396 12.2185 5.00519 11.9238C5.01025 11.7898 5.0191 11.6558 5.03174 11.5225C5.08832 10.9226 5.22064 10.3301 5.42877 9.74463C5.67706 9.0459 6.02753 8.37427 6.4801 7.72949C7.36877 6.46362 8.59668 5.36572 10.1638 4.43604C11.7428 3.49927 13.5886 2.78174 15.7014 2.28369C16.9124 1.99805 18.1879 1.79053 19.528 1.66113C20.9084 2.60132 22.0908 3.81079 22.9995 5.21387L22.9995 5.49976C20.6607 5.49976 18.534 5.72559 16.6193 6.177C14.9041 6.5813 13.4326 7.14771 12.2049 7.87622C11.1304 8.51367 10.3134 9.23096 9.75391 10.0278C9.27899 10.7043 9.02844 11.387 9.00226 12.0757C8.99817 12.1836 8.99969 12.2913 9.00684 12.3984C9.04401 12.9583 9.23419 13.5078 9.57739 14.0474C10.0672 14.8171 10.8257 15.5115 11.8531 16.1304C13.0545 16.854 14.5334 17.4172 16.2897 17.8198C18.2664 18.2732 20.5032 18.4998 23.0001 18.4998L23.0001 18.7849Z" clip-rule="evenodd" fill="#222222" fill-opacity="1.000000" fill-rule="evenodd"/>
</svg>
