<svg width="224.000000" height="32.000000" viewBox="0 0 224 32" fill="none" xmlns="http://www.w3.org/2000/svg" xmlns:xlink="http://www.w3.org/1999/xlink">
	<desc>
			Created with Pixso.
	</desc>
	<defs/>
	<circle id="Ellipse" cx="12.500000" cy="16.000000" r="12.500000" fill="#FEF339" fill-opacity="1.000000"/>
	<path id="Intersect" d="M23.0001 22.7849C22.0866 24.1956 20.8967 25.4104 19.5069 26.3528C18.0519 26.2249 16.6815 26.0137 15.3957 25.7188C13.2242 25.2209 11.3554 24.5002 9.78918 23.5569C8.22455 22.6143 7.02899 21.4934 6.20251 20.1946C5.78241 19.5342 5.47125 18.8452 5.26904 18.1279C5.14563 17.6899 5.0647 17.2485 5.02618 16.8032C5.00098 16.5117 4.99396 16.2185 5.00519 15.9238C5.01025 15.7898 5.0191 15.6558 5.03174 15.5225C5.08832 14.9226 5.22064 14.3301 5.42877 13.7446C5.67706 13.0459 6.02753 12.3743 6.4801 11.7295C7.36877 10.4636 8.59668 9.36572 10.1638 8.43604C11.7428 7.49927 13.5886 6.78174 15.7014 6.28369C16.9124 5.99805 18.1879 5.79053 19.528 5.66113C20.9084 6.60132 22.0908 7.81079 22.9995 9.21387L22.9995 9.49976C20.6607 9.49976 18.534 9.72559 16.6193 10.177C14.9041 10.5813 13.4326 11.1477 12.2049 11.8762C11.1304 12.5137 10.3134 13.231 9.75391 14.0278C9.27899 14.7043 9.02844 15.387 9.00226 16.0757C8.99817 16.1836 8.99969 16.2913 9.00684 16.3984C9.04401 16.9583 9.23419 17.5078 9.57739 18.0474C10.0672 18.8171 10.8257 19.5115 11.8531 20.1304C13.0545 20.854 14.5334 21.4172 16.2897 21.8198C18.2664 22.2732 20.5032 22.4998 23.0001 22.4998L23.0001 22.7849Z" clip-rule="evenodd" fill="#222222" fill-opacity="1.000000" fill-rule="evenodd"/>
	<path id="[Yandex Logo]" d="M152.41 10.68Q151.14 13.04 151.14 17.27Q151.14 21.16 152.72 23.2Q153.45 24.13 154.41 24.64Q155.53 25.24 156.97 25.24Q158.73 25.24 160.04 24.53Q160.42 24.33 160.74 24.07Q161.57 23.41 162.11 22.38Q162.85 20.94 162.85 18.8Q162.85 16.31 161.65 14.72Q161.62 14.68 161.58 14.63Q161.26 14.22 160.86 13.92Q159.67 13.02 157.81 13.02Q156.76 13.02 155.92 13.36Q155.1 13.69 154.51 14.17Q153.93 14.65 153.59 15.1L153.45 15.1Q153.56 12.4 154.47 11.11Q154.91 10.5 155.49 10.1Q156.13 9.67 156.95 9.49Q157.7 9.32 158.73 9.15Q159.76 8.96 160.81 8.78Q161.87 8.6 162.71 8.48L162.35 6.64Q161.05 6.85 159.56 7.12Q158.08 7.38 156.52 7.72Q154.81 8.08 153.67 9.08Q152.92 9.74 152.41 10.68ZM126.57 10.35Q127.9 9.51 129.76 9.51Q130.91 9.51 131.88 9.8Q132.85 10.09 133.64 10.45L134.51 8.63Q132.5 7.62 129.78 7.62Q127.14 7.62 125.29 8.74Q124.47 9.23 123.83 9.89Q123.02 10.73 122.49 11.83Q121.55 13.81 121.55 16.41Q121.55 19.09 122.42 21.08Q123 22.39 123.95 23.31Q124.45 23.78 125.05 24.16Q126.81 25.24 129.42 25.24Q130.84 25.24 131.86 25.07Q132.5 24.96 133.11 24.78Q133.48 24.67 133.84 24.54L133.84 22.67Q132.88 22.96 131.87 23.15Q130.86 23.34 129.74 23.34Q127.45 23.34 126.05 22.22Q125.64 21.9 125.31 21.48Q123.83 19.62 123.83 16.43Q123.83 13.21 125.41 11.37Q125.93 10.76 126.57 10.35ZM36.04 25L40.48 17.89L43.84 17.89L43.84 25L46 25L46 7.86L41.2 7.86Q38.01 7.86 36.4 9.09Q35.88 9.49 35.53 10.01Q34.79 11.08 34.79 12.66Q34.79 14.17 35.3 15.13Q35.76 16.02 36.49 16.56Q36.55 16.6 36.6 16.65Q37.22 17.07 37.9 17.35Q38.11 17.43 38.32 17.51L33.52 25L36.04 25ZM38.12 10.42Q39.21 9.71 41.25 9.71L43.84 9.71L43.84 16.07L41.34 16.07Q39.14 16.07 38.08 15.2Q37.76 14.94 37.54 14.61Q37.03 13.86 37.03 12.75Q37.03 11.55 37.62 10.85Q37.83 10.6 38.12 10.42ZM87.41 12.61Q86.23 11.89 84.57 11.89Q83.11 11.89 81.96 12.49Q81.77 12.59 81.58 12.71Q81.32 12.88 81.08 13.08Q80.15 13.84 79.59 15.03Q78.88 16.55 78.88 18.66Q78.88 20.79 79.66 22.27Q80.17 23.24 80.95 23.89Q81.36 24.23 81.85 24.49Q83.25 25.24 85.07 25.24Q86.39 25.24 87.35 25.03Q88.32 24.83 89.3 24.4L89.3 22.55Q88.29 22.98 87.34 23.21Q86.39 23.44 85.17 23.44Q83.62 23.44 82.63 22.7Q82.39 22.52 82.18 22.3Q81.11 21.16 81.07 18.97L89.87 18.97L89.87 17.7Q89.87 15.95 89.23 14.64Q88.82 13.79 88.18 13.19Q87.83 12.87 87.41 12.61ZM107.48 24.54Q108.81 25.24 110.52 25.24Q111.62 25.24 112.4 25.05Q113.18 24.88 113.83 24.54L113.83 22.67Q113.15 22.98 112.35 23.2Q111.55 23.41 110.49 23.41Q109.21 23.41 108.37 22.8Q108.01 22.54 107.74 22.18Q106.82 20.94 106.82 18.61Q106.82 15.58 108.29 14.43Q109.18 13.74 110.61 13.74Q111.28 13.74 112.05 13.93Q112.82 14.13 113.39 14.34L114.04 12.58Q113.47 12.3 112.56 12.1Q111.64 11.89 110.66 11.89Q108.93 11.89 107.58 12.59Q107.29 12.74 107.02 12.92Q106.05 13.6 105.42 14.77Q104.63 16.26 104.63 18.64Q104.63 20.92 105.39 22.38Q105.95 23.47 106.83 24.13Q107.14 24.36 107.48 24.54ZM146.93 23.4Q148.48 21.66 148.48 18.54Q148.48 16.41 147.72 14.93Q147.18 13.87 146.34 13.17Q146.01 12.89 145.63 12.67Q145.55 12.63 145.47 12.58Q144.2 11.89 142.55 11.89Q140.52 11.89 139.11 12.83Q138.6 13.17 138.18 13.62Q138.16 13.64 138.15 13.65Q136.57 15.37 136.57 18.54Q136.57 20.68 137.34 22.18Q137.94 23.34 138.87 24.07Q139.14 24.28 139.44 24.46Q139.64 24.58 139.86 24.68Q141.03 25.24 142.48 25.24Q144.47 25.24 145.86 24.33Q146.4 23.97 146.86 23.48Q146.89 23.44 146.93 23.4ZM52.49 17.48L52.49 12.13L50.37 12.13L50.37 25L52.49 25L52.49 19.26L59.47 19.26L59.47 25L61.58 25L61.58 12.13L59.47 12.13L59.47 17.48L52.49 17.48ZM75.21 23.22L75.21 12.13L68.44 12.13Q68.44 12.77 68.39 13.4Q68.24 15.73 67.59 18.02Q66.77 20.94 65.11 23.22L64.08 23.22L64.08 29.46L66.09 29.46L66.09 25L75.04 25L75.04 29.46L77.08 29.46L77.08 23.22L75.21 23.22ZM103.05 12.13L100.75 12.13L95.25 18.37L95.25 12.13L93.14 12.13L93.14 25L95.25 25L95.25 18.47L101.06 25L103.51 25L97.56 18.32L103.05 12.13ZM166.19 12.13L166.19 25L171.54 25Q174.18 25 175.36 23.93Q175.73 23.59 175.99 23.17Q176.54 22.29 176.54 21.06Q176.54 19.73 175.89 18.88Q175.66 18.57 175.34 18.33Q174.13 17.41 171.64 17.41L168.3 17.41L168.3 12.13L166.19 12.13ZM178.67 12.13L178.67 25L180.78 25L180.78 12.13L178.67 12.13ZM189.54 13.91L193.74 13.91L193.74 12.13L183.3 12.13L183.3 13.91L187.46 13.91L187.46 25L189.54 25L189.54 13.91ZM198.25 20.85Q198.28 20.27 198.28 19.98L198.28 12.13L196.28 12.13L196.28 25L198.9 25L205.74 14.24Q205.72 14.55 205.69 15.17Q205.67 15.78 205.66 16.41Q205.65 17.03 205.65 17.41L205.65 25L207.61 25L207.61 12.13L205.02 12.13L198.14 22.91Q198.16 22.57 198.19 22Q198.23 21.42 198.25 20.85ZM210.06 25L212.51 25L215.82 19.89L218.94 19.89L218.94 25L221.06 25L221.06 12.13L215.29 12.13Q213.23 12.13 211.98 13.11Q211.61 13.4 211.34 13.77Q210.73 14.63 210.73 15.92Q210.73 17.05 211.17 17.81Q211.51 18.4 212.01 18.79Q212.15 18.89 212.29 18.98Q212.99 19.41 213.73 19.59L210.06 25ZM82.72 14.11Q83.47 13.62 84.55 13.62Q85.79 13.62 86.51 14.23Q86.73 14.41 86.9 14.64Q87.64 15.66 87.66 17.29L81.11 17.29Q81.28 15.56 82.16 14.59Q82.41 14.31 82.72 14.11ZM139.65 22.15Q138.76 20.82 138.76 18.54Q138.76 16.26 139.64 14.96Q139.87 14.64 140.16 14.39Q141.03 13.67 142.5 13.67Q143.97 13.67 144.85 14.39Q145.15 14.63 145.38 14.96Q146.29 16.26 146.29 18.54Q146.29 20.82 145.38 22.15Q145.11 22.54 144.76 22.81Q143.9 23.48 142.52 23.48Q141.1 23.48 140.24 22.79Q139.9 22.52 139.65 22.15ZM69.81 17.16Q70.22 15.42 70.32 13.79L73.17 13.79L73.17 23.22L67.29 23.22Q68.13 22.07 68.76 20.48Q69.4 18.9 69.81 17.16ZM213.09 17.1Q212.77 16.63 212.77 15.95Q212.77 15.4 213 14.97Q213.15 14.69 213.4 14.46Q214.04 13.89 215.51 13.89L218.94 13.89L218.94 18.13L215.92 18.13Q214.43 18.13 213.6 17.59Q213.28 17.39 213.09 17.1ZM159 23.01Q158.21 23.48 157.14 23.48Q155.99 23.48 155.23 22.97Q155.02 22.82 154.83 22.65Q154.36 22.2 154.06 21.58Q153.63 20.7 153.46 19.6Q153.3 18.49 153.3 17.31Q153.54 16.91 154.12 16.31Q154.7 15.71 155.56 15.24Q155.75 15.13 155.95 15.05Q156.66 14.77 157.48 14.77Q158.7 14.77 159.41 15.37Q159.69 15.6 159.89 15.91Q160.62 17.05 160.62 19.02Q160.62 21.47 159.66 22.48Q159.36 22.79 159 23.01ZM173.58 22.82Q172.72 23.29 171.35 23.29L168.3 23.29L168.3 19.16L171.37 19.16Q172.86 19.16 173.65 19.59Q173.86 19.69 174.01 19.85Q174.44 20.3 174.44 21.18Q174.44 21.96 174.07 22.42Q173.87 22.66 173.58 22.82Z" fill="#222222" fill-opacity="1.000000" fill-rule="evenodd"/>
</svg>
